<svg width="21" height="15" viewBox="0 0 21 15" fill="none" xmlns="http://www.w3.org/2000/svg">
<path fill-rule="evenodd" clip-rule="evenodd" d="M4.6251 14.9416C4.6194 14.9416 4.61542 14.9361 4.61731 14.9308L9.97869 0.00541499C9.97988 0.0021701 9.98299 0 9.98648 0H15.7099C15.7134 0 15.7165 0.00218628 15.7177 0.00545137L20.9995 14.9308C21.0014 14.9361 20.9974 14.9416 20.9918 14.9416H4.78621H4.6251ZM0.00825672 15C0.00249836 15 -0.00148826 14.9943 0.000531594 14.989L3.99299 4.48773C3.9942 4.48454 3.99728 4.48243 4.00072 4.48243H7.46971C7.47545 4.48243 7.47943 4.48805 7.47746 4.49334L3.61687 14.9947C3.61568 14.9979 3.61258 15 3.60911 15H0.00825672Z" fill="#ACB9C1"/>
</svg>
